<svg width="20" height="20" viewBox="0 0 20 20" fill="none" xmlns="http://www.w3.org/2000/svg">
<g clip-path="url(#clip0_526_165)">
<path d="M9.77779 13.5112L8.41112 14.8667C7.99523 15.2773 7.43438 15.5075 6.85001 15.5075C6.26564 15.5075 5.70478 15.2773 5.2889 14.8667C5.08615 14.6645 4.92529 14.4242 4.81554 14.1596C4.70579 13.8951 4.64929 13.6115 4.64929 13.3251C4.64929 13.0387 4.70579 12.7551 4.81554 12.4905C4.92529 12.226 5.08615 11.9857 5.2889 11.7834L7.89445 9.20008C8.31034 8.78956 8.87119 8.55938 9.45556 8.55938C10.0399 8.55938 10.6008 8.78956 11.0167 9.20008C11.2813 9.46303 11.4728 9.79048 11.5722 10.1501C11.6269 10.105 11.6771 10.0548 11.7222 10.0001L12.4389 9.28897C12.2784 8.95496 12.0624 8.65063 11.8 8.38897C11.1759 7.77151 10.3335 7.42517 9.45556 7.42517C8.57765 7.42517 7.73519 7.77151 7.11112 8.38897L4.50001 10.9945C4.19245 11.2997 3.94834 11.6628 3.78176 12.0628C3.61518 12.4628 3.52942 12.8918 3.52942 13.3251C3.52942 13.7584 3.61518 14.1874 3.78176 14.5874C3.94834 14.9874 4.19245 15.3504 4.50001 15.6556C5.12408 16.2731 5.96654 16.6194 6.84445 16.6194C7.72236 16.6194 8.56483 16.2731 9.1889 15.6556L11.2167 13.6445H10.9389C10.5477 13.6514 10.1573 13.6066 9.77779 13.5112Z" fill="white"/>
<path d="M15.8944 4.34441C15.2703 3.72695 14.4279 3.38062 13.55 3.38062C12.672 3.38062 11.8296 3.72695 11.2055 4.34441L9.17773 6.35553H9.44995C9.84402 6.35543 10.2363 6.40774 10.6166 6.51108L11.9833 5.15553C12.3992 4.74501 12.96 4.51482 13.5444 4.51482C14.1288 4.51482 14.6896 4.74501 15.1055 5.15553C15.3083 5.35782 15.4691 5.59811 15.5789 5.86265C15.6886 6.12719 15.7451 6.41079 15.7451 6.69719C15.7451 6.9836 15.6886 7.26719 15.5789 7.53173C15.4691 7.79627 15.3083 8.03657 15.1055 8.23886L12.5 10.8222C12.0841 11.2327 11.5232 11.4629 10.9388 11.4629C10.3545 11.4629 9.79362 11.2327 9.37773 10.8222C9.11306 10.5592 8.92157 10.2318 8.82217 9.87219C8.76656 9.90999 8.7145 9.95276 8.66662 9.99997L7.94995 10.7111C8.11042 11.0451 8.32645 11.3494 8.58884 11.6111C9.21291 12.2285 10.0554 12.5749 10.9333 12.5749C11.8112 12.5749 12.6537 12.2285 13.2777 11.6111L15.8833 9.02775C16.1902 8.72217 16.4337 8.35898 16.5999 7.95904C16.766 7.5591 16.8515 7.13028 16.8515 6.69719C16.8515 6.26411 16.766 5.83529 16.5999 5.43535C16.4337 5.03541 16.1902 4.67222 15.8833 4.36664L15.8944 4.34441Z" fill="white"/>
</g>
<defs>
<clipPath id="clip0_526_165">
<rect width="20" height="20" fill="white"/>
</clipPath>
</defs>
</svg>
